<svg width="16" height="16" viewBox="0 0 16 16" fill="none" xmlns="http://www.w3.org/2000/svg">
<path fill-rule="evenodd" clip-rule="evenodd" d="M0 8C0 5.87827 0.842855 3.84344 2.34315 2.34315C3.84344 0.842855 5.87827 0 8 0C10.1217 0 12.1566 0.842855 13.6569 2.34315C15.1571 3.84344 16 5.87827 16 8C16 10.1217 15.1571 12.1566 13.6569 13.6569C12.1566 15.1571 10.1217 16 8 16C5.87827 16 3.84344 15.1571 2.34315 13.6569C0.842855 12.1566 0 10.1217 0 8ZM7.5 1.077C6.83 1.281 6.165 1.897 5.613 2.932C5.43113 3.2761 5.27471 3.63305 5.145 4H7.5V1.077ZM4.09 4H2.255C3.02201 2.89962 4.088 2.04183 5.327 1.528C5.10259 1.82199 4.90291 2.13406 4.73 2.461C4.483 2.925 4.268 3.441 4.09 4ZM3.508 7.5H1.018C1.08 6.61 1.309 5.767 1.674 5H3.82C3.63916 5.82194 3.53472 6.65883 3.508 7.5ZM4.847 5H7.5V7.5H4.51C4.53742 6.65747 4.64999 5.81987 4.846 5H4.847ZM8.5 5V7.5H11.49C11.4623 6.65743 11.3494 5.81983 11.153 5H8.5ZM4.51 8.5H7.5V11H4.847C4.65032 10.1802 4.53707 9.3426 4.509 8.5H4.51ZM8.5 8.5V11H11.153C11.34 10.235 11.459 9.392 11.491 8.5H8.5ZM5.145 12H7.5V14.923C6.83 14.719 6.165 14.103 5.613 13.068C5.43113 12.7239 5.27471 12.3669 5.145 12ZM5.327 14.472C5.10257 14.178 4.90289 13.866 4.73 13.539C4.47088 13.0463 4.25668 12.5312 4.09 12H2.255C3.02196 13.1004 4.08797 13.9582 5.327 14.472ZM3.82 11H1.674C1.30112 10.2149 1.07861 9.36699 1.018 8.5H3.508C3.538 9.377 3.646 10.218 3.82 11ZM10.673 14.472C11.912 13.9582 12.978 13.1004 13.745 12H11.91C11.7433 12.5312 11.5291 13.0463 11.27 13.539C11.0971 13.866 10.8975 14.178 10.673 14.472ZM8.5 12H10.855C10.7253 12.367 10.5689 12.7239 10.387 13.068C9.835 14.103 9.169 14.718 8.5 14.923V12ZM12.18 11H14.326C14.691 10.233 14.92 9.39 14.982 8.5H12.492C12.4653 9.34117 12.3608 10.1781 12.18 11ZM14.982 7.5H12.492C12.4653 6.65883 12.3608 5.82193 12.18 5H14.326C14.691 5.767 14.92 6.61 14.982 7.5ZM11.27 2.461C11.517 2.925 11.732 3.441 11.91 4H13.745C12.978 2.89958 11.912 2.04178 10.673 1.528C10.891 1.812 11.091 2.126 11.27 2.461ZM10.855 4H8.5V1.077C9.17 1.281 9.835 1.897 10.387 2.932C10.56 3.256 10.717 3.614 10.855 4Z" fill="black" fill-opacity="0.5"/>
</svg>

