<svg width="16" height="16" viewBox="0 0 16 16" fill="none" xmlns="http://www.w3.org/2000/svg">
<path fill-rule="evenodd" clip-rule="evenodd" d="M3.64617 1.32434C3.58714 1.2484 3.51262 1.18589 3.42757 1.14097C3.34252 1.09604 3.24889 1.06972 3.15289 1.06377C3.05689 1.05781 2.96072 1.07234 2.87077 1.10641C2.78081 1.14047 2.69914 1.19329 2.63117 1.26134L1.59717 2.29634C1.11417 2.78034 0.93617 3.46534 1.14717 4.06634C2.02291 6.55393 3.44746 8.81244 5.31517 10.6743C7.1771 12.542 9.4356 13.9666 11.9232 14.8423C12.5242 15.0533 13.2092 14.8753 13.6932 14.3923L14.7272 13.3583C14.7952 13.2904 14.848 13.2087 14.8821 13.1187C14.9162 13.0288 14.9307 12.9326 14.9247 12.8366C14.9188 12.7406 14.8925 12.647 14.8475 12.5619C14.8026 12.4769 14.7401 12.4024 14.6642 12.3433L12.3572 10.5493C12.276 10.4864 12.1817 10.4427 12.0812 10.4216C11.9807 10.4005 11.8768 10.4024 11.7772 10.4273L9.58717 10.9743C9.29485 11.0474 8.98859 11.0435 8.69821 10.9631C8.40784 10.8827 8.14323 10.7284 7.93017 10.5153L5.47417 8.05834C5.26094 7.84538 5.1065 7.58082 5.02588 7.29044C4.94527 7.00006 4.94123 6.69375 5.01417 6.40134L5.56217 4.21134C5.58708 4.11174 5.58904 4.00778 5.5679 3.90731C5.54677 3.80683 5.50309 3.71247 5.44017 3.63134L3.64617 1.32434ZM1.87617 0.507343C2.05116 0.332292 2.2614 0.196473 2.49291 0.108904C2.72442 0.0213351 2.97191 -0.0159803 3.21895 -0.000563991C3.46599 0.0148523 3.70692 0.0826474 3.92575 0.19832C4.14458 0.313992 4.3363 0.474894 4.48817 0.670343L6.28217 2.97634C6.61117 3.39934 6.72717 3.95034 6.59717 4.47034L6.05017 6.66034C6.02189 6.77377 6.02342 6.89259 6.0546 7.00525C6.08579 7.11792 6.14558 7.2206 6.22817 7.30334L8.68517 9.76034C8.76801 9.8431 8.87086 9.90299 8.98372 9.93418C9.09658 9.96537 9.21559 9.96681 9.32917 9.93834L11.5182 9.39134C11.7748 9.32718 12.0426 9.3222 12.3014 9.37677C12.5603 9.43134 12.8033 9.54404 13.0122 9.70634L15.3182 11.5003C16.1472 12.1453 16.2232 13.3703 15.4812 14.1113L14.4472 15.1453C13.7072 15.8853 12.6012 16.2103 11.5702 15.8473C8.93135 14.9189 6.53544 13.4082 4.56017 11.4273C2.57946 9.45236 1.06878 7.0568 0.14017 4.41834C-0.22183 3.38834 0.10317 2.28134 0.84317 1.54134L1.87717 0.507343H1.87617Z" fill="black" fill-opacity="0.5"/>
</svg>

