<?xml version="1.0" encoding="utf-8"?><svg xmlns="http://www.w3.org/2000/svg" xmlns:xlink="http://www.w3.org/1999/xlink"><symbol viewBox="0 0 16 16" class="bbi bbi-chat" fill="currentColor" id="chat" xmlns="http://www.w3.org/2000/svg">
  <path fill-rule="evenodd" d="M2.678 11.894a1 1 0 0 1 .287.801 10.97 10.97 0 0 1-.398 2c1.395-.323 2.247-.697 2.634-.893a1 1 0 0 1 .71-.074A8.06 8.06 0 0 0 8 14c3.996 0 7-2.807 7-6 0-3.192-3.004-6-7-6S1 4.808 1 8c0 1.468.617 2.83 1.678 3.894zm-.493 3.905a21.682 21.682 0 0 1-.713.129c-.2.032-.352-.176-.273-.362a9.68 9.68 0 0 0 .244-.637l.003-.01c.248-.72.45-1.548.524-2.319C.743 11.37 0 9.76 0 8c0-3.866 3.582-7 8-7s8 3.134 8 7-3.582 7-8 7a9.06 9.06 0 0 1-2.347-.306c-.52.263-1.639.742-3.468 1.105z"/>
</symbol><symbol viewBox="0 0 16 16" class="abi abi-chat-left-text" fill="currentColor" id="chat-left-text" xmlns="http://www.w3.org/2000/svg">
  <path fill-rule="evenodd" d="M14 1H2a1 1 0 0 0-1 1v11.586l2-2A2 2 0 0 1 4.414 11H14a1 1 0 0 0 1-1V2a1 1 0 0 0-1-1zM2 0a2 2 0 0 0-2 2v12.793a.5.5 0 0 0 .854.353l2.853-2.853A1 1 0 0 1 4.414 12H14a2 2 0 0 0 2-2V2a2 2 0 0 0-2-2H2z"/>
  <path fill-rule="evenodd" d="M3 3.5a.5.5 0 0 1 .5-.5h9a.5.5 0 0 1 0 1h-9a.5.5 0 0 1-.5-.5zM3 6a.5.5 0 0 1 .5-.5h9a.5.5 0 0 1 0 1h-9A.5.5 0 0 1 3 6zm0 2.5a.5.5 0 0 1 .5-.5h5a.5.5 0 0 1 0 1h-5a.5.5 0 0 1-.5-.5z"/>
</symbol><symbol viewBox="0 0 16 16" class="cbi cbi-cursor" fill="currentColor" id="cursor" xmlns="http://www.w3.org/2000/svg">
  <path fill-rule="evenodd" d="M14.082 2.182a.5.5 0 0 1 .103.557L8.528 15.467a.5.5 0 0 1-.917-.007L5.57 10.694.803 8.652a.5.5 0 0 1-.006-.916l12.728-5.657a.5.5 0 0 1 .556.103zM2.25 8.184l3.897 1.67a.5.5 0 0 1 .262.263l1.67 3.897L12.743 3.52 2.25 8.184z"/>
</symbol><symbol viewBox="0 0 16 16" fill="none" id="earth" xmlns="http://www.w3.org/2000/svg">
<path fill-rule="evenodd" clip-rule="evenodd" d="M0 8C0 5.87827 0.842855 3.84344 2.34315 2.34315C3.84344 0.842855 5.87827 0 8 0C10.1217 0 12.1566 0.842855 13.6569 2.34315C15.1571 3.84344 16 5.87827 16 8C16 10.1217 15.1571 12.1566 13.6569 13.6569C12.1566 15.1571 10.1217 16 8 16C5.87827 16 3.84344 15.1571 2.34315 13.6569C0.842855 12.1566 0 10.1217 0 8ZM7.5 1.077C6.83 1.281 6.165 1.897 5.613 2.932C5.43113 3.2761 5.27471 3.63305 5.145 4H7.5V1.077ZM4.09 4H2.255C3.02201 2.89962 4.088 2.04183 5.327 1.528C5.10259 1.82199 4.90291 2.13406 4.73 2.461C4.483 2.925 4.268 3.441 4.09 4ZM3.508 7.5H1.018C1.08 6.61 1.309 5.767 1.674 5H3.82C3.63916 5.82194 3.53472 6.65883 3.508 7.5ZM4.847 5H7.5V7.5H4.51C4.53742 6.65747 4.64999 5.81987 4.846 5H4.847ZM8.5 5V7.5H11.49C11.4623 6.65743 11.3494 5.81983 11.153 5H8.5ZM4.51 8.5H7.5V11H4.847C4.65032 10.1802 4.53707 9.3426 4.509 8.5H4.51ZM8.5 8.5V11H11.153C11.34 10.235 11.459 9.392 11.491 8.5H8.5ZM5.145 12H7.5V14.923C6.83 14.719 6.165 14.103 5.613 13.068C5.43113 12.7239 5.27471 12.3669 5.145 12ZM5.327 14.472C5.10257 14.178 4.90289 13.866 4.73 13.539C4.47088 13.0463 4.25668 12.5312 4.09 12H2.255C3.02196 13.1004 4.08797 13.9582 5.327 14.472ZM3.82 11H1.674C1.30112 10.2149 1.07861 9.36699 1.018 8.5H3.508C3.538 9.377 3.646 10.218 3.82 11ZM10.673 14.472C11.912 13.9582 12.978 13.1004 13.745 12H11.91C11.7433 12.5312 11.5291 13.0463 11.27 13.539C11.0971 13.866 10.8975 14.178 10.673 14.472ZM8.5 12H10.855C10.7253 12.367 10.5689 12.7239 10.387 13.068C9.835 14.103 9.169 14.718 8.5 14.923V12ZM12.18 11H14.326C14.691 10.233 14.92 9.39 14.982 8.5H12.492C12.4653 9.34117 12.3608 10.1781 12.18 11ZM14.982 7.5H12.492C12.4653 6.65883 12.3608 5.82193 12.18 5H14.326C14.691 5.767 14.92 6.61 14.982 7.5ZM11.27 2.461C11.517 2.925 11.732 3.441 11.91 4H13.745C12.978 2.89958 11.912 2.04178 10.673 1.528C10.891 1.812 11.091 2.126 11.27 2.461ZM10.855 4H8.5V1.077C9.17 1.281 9.835 1.897 10.387 2.932C10.56 3.256 10.717 3.614 10.855 4Z" fill="black" fill-opacity="0.5"/>
</symbol><symbol viewBox="0 0 16 12" fill="none" id="email" xmlns="http://www.w3.org/2000/svg">
<path fill-rule="evenodd" clip-rule="evenodd" d="M0 2C0 1.46957 0.210714 0.960859 0.585786 0.585786C0.960859 0.210714 1.46957 0 2 0H14C14.5304 0 15.0391 0.210714 15.4142 0.585786C15.7893 0.960859 16 1.46957 16 2V10C16 10.5304 15.7893 11.0391 15.4142 11.4142C15.0391 11.7893 14.5304 12 14 12H2C1.46957 12 0.960859 11.7893 0.585786 11.4142C0.210714 11.0391 0 10.5304 0 10V2ZM2 1C1.73478 1 1.48043 1.10536 1.29289 1.29289C1.10536 1.48043 1 1.73478 1 2V2.217L8 6.417L15 2.217V2C15 1.73478 14.8946 1.48043 14.7071 1.29289C14.5196 1.10536 14.2652 1 14 1H2ZM15 3.383L10.242 6.238L15 9.114V3.384V3.383ZM14.966 10.261L9.271 6.82L8 7.583L6.728 6.82L1.034 10.26C1.0912 10.4724 1.21685 10.6601 1.39149 10.7938C1.56613 10.9276 1.78001 11.0001 2 11H14C14.2199 11.0001 14.4336 10.9278 14.6083 10.7942C14.7829 10.6607 14.9086 10.4732 14.966 10.261ZM1 9.114L5.758 6.238L1 3.383V9.113V9.114Z" fill="black" fill-opacity="0.5"/>
</symbol><symbol viewBox="0 0 157.33 267.55" id="logo" xmlns="http://www.w3.org/2000/svg">
  <defs>
    <style>.fcls-1{fill:#fff}</style>
  </defs>
  <path id="fcanvas_background" fill="none" d="M-1-1h159.33v269.55H-1z"/>
  <path id="fsvg_1" d="M139.44 267.38h-6.12a9 9 0 0 1-9-9v-75.12H32.56v75.12a9 9 0 0 1-9 9h-6a9 9 0 0 1-9-9v-173l24 16v62.25h91.75v-62.25l24.13-16v173a9 9 0 0 1-9 9z" class="fcls-1"/>
  <path id="fsvg_2" d="m1 44.88 77.5 44.88L156 44.88 78.5 0 1 44.88z" class="fcls-1"/>
</symbol><symbol viewBox="0 0 16 16" class="gbi gbi-people" fill="currentColor" id="people" xmlns="http://www.w3.org/2000/svg">
  <path fill-rule="evenodd" d="M15 14s1 0 1-1-1-4-5-4-5 3-5 4 1 1 1 1h8zm-7.978-1h7.956a.274.274 0 0 0 .014-.002l.008-.002c-.002-.264-.167-1.03-.76-1.72C13.688 10.629 12.718 10 11 10c-1.717 0-2.687.63-3.24 1.276-.593.69-.759 1.457-.76 1.72a1.05 1.05 0 0 0 .022.004zM11 7a2 2 0 1 0 0-4 2 2 0 0 0 0 4zm3-2a3 3 0 1 1-6 0 3 3 0 0 1 6 0zM6.936 9.28a5.88 5.88 0 0 0-1.23-.247A7.35 7.35 0 0 0 5 9c-4 0-5 3-5 4 0 .667.333 1 1 1h4.216A2.238 2.238 0 0 1 5 13c0-1.01.377-2.042 1.09-2.904.243-.294.526-.569.846-.816zM4.92 10c-1.668.02-2.615.64-3.16 1.276C1.163 11.97 1 12.739 1 13h3c0-1.045.323-2.086.92-3zM1.5 5.5a3 3 0 1 1 6 0 3 3 0 0 1-6 0zm3-2a2 2 0 1 0 0 4 2 2 0 0 0 0-4z"/>
</symbol><symbol viewBox="0 0 16 16" class="hbi hbi-person" fill="currentColor" id="person" xmlns="http://www.w3.org/2000/svg">
  <path fill-rule="evenodd" d="M10 5a2 2 0 1 1-4 0 2 2 0 0 1 4 0zM8 8a3 3 0 1 0 0-6 3 3 0 0 0 0 6zm6 5c0 1-1 1-1 1H3s-1 0-1-1 1-4 6-4 6 3 6 4zm-1-.004c-.001-.246-.154-.986-.832-1.664C11.516 10.68 10.289 10 8 10c-2.29 0-3.516.68-4.168 1.332-.678.678-.83 1.418-.832 1.664h10z"/>
</symbol><symbol viewBox="0 0 16 16" fill="none" id="phone" xmlns="http://www.w3.org/2000/svg">
<path fill-rule="evenodd" clip-rule="evenodd" d="M3.64617 1.32434C3.58714 1.2484 3.51262 1.18589 3.42757 1.14097C3.34252 1.09604 3.24889 1.06972 3.15289 1.06377C3.05689 1.05781 2.96072 1.07234 2.87077 1.10641C2.78081 1.14047 2.69914 1.19329 2.63117 1.26134L1.59717 2.29634C1.11417 2.78034 0.93617 3.46534 1.14717 4.06634C2.02291 6.55393 3.44746 8.81244 5.31517 10.6743C7.1771 12.542 9.4356 13.9666 11.9232 14.8423C12.5242 15.0533 13.2092 14.8753 13.6932 14.3923L14.7272 13.3583C14.7952 13.2904 14.848 13.2087 14.8821 13.1187C14.9162 13.0288 14.9307 12.9326 14.9247 12.8366C14.9188 12.7406 14.8925 12.647 14.8475 12.5619C14.8026 12.4769 14.7401 12.4024 14.6642 12.3433L12.3572 10.5493C12.276 10.4864 12.1817 10.4427 12.0812 10.4216C11.9807 10.4005 11.8768 10.4024 11.7772 10.4273L9.58717 10.9743C9.29485 11.0474 8.98859 11.0435 8.69821 10.9631C8.40784 10.8827 8.14323 10.7284 7.93017 10.5153L5.47417 8.05834C5.26094 7.84538 5.1065 7.58082 5.02588 7.29044C4.94527 7.00006 4.94123 6.69375 5.01417 6.40134L5.56217 4.21134C5.58708 4.11174 5.58904 4.00778 5.5679 3.90731C5.54677 3.80683 5.50309 3.71247 5.44017 3.63134L3.64617 1.32434ZM1.87617 0.507343C2.05116 0.332292 2.2614 0.196473 2.49291 0.108904C2.72442 0.0213351 2.97191 -0.0159803 3.21895 -0.000563991C3.46599 0.0148523 3.70692 0.0826474 3.92575 0.19832C4.14458 0.313992 4.3363 0.474894 4.48817 0.670343L6.28217 2.97634C6.61117 3.39934 6.72717 3.95034 6.59717 4.47034L6.05017 6.66034C6.02189 6.77377 6.02342 6.89259 6.0546 7.00525C6.08579 7.11792 6.14558 7.2206 6.22817 7.30334L8.68517 9.76034C8.76801 9.8431 8.87086 9.90299 8.98372 9.93418C9.09658 9.96537 9.21559 9.96681 9.32917 9.93834L11.5182 9.39134C11.7748 9.32718 12.0426 9.3222 12.3014 9.37677C12.5603 9.43134 12.8033 9.54404 13.0122 9.70634L15.3182 11.5003C16.1472 12.1453 16.2232 13.3703 15.4812 14.1113L14.4472 15.1453C13.7072 15.8853 12.6012 16.2103 11.5702 15.8473C8.93135 14.9189 6.53544 13.4082 4.56017 11.4273C2.57946 9.45236 1.06878 7.0568 0.14017 4.41834C-0.22183 3.38834 0.10317 2.28134 0.84317 1.54134L1.87717 0.507343H1.87617Z" fill="black" fill-opacity="0.5"/>
</symbol><symbol viewBox="0 0 16 12" fill="none" id="twitter" xmlns="http://www.w3.org/2000/svg">
<path fill-rule="evenodd" clip-rule="evenodd" d="M15 12C15 12 16 12 16 11C16 10 15 7 11 7C7 7 6 10 6 11C6 12 7 12 7 12H15ZM7.022 11H14.978C14.9827 10.9995 14.9874 10.9988 14.992 10.998L15 10.996C14.998 10.732 14.833 9.966 14.24 9.276C13.688 8.629 12.718 8 11 8C9.283 8 8.313 8.63 7.76 9.276C7.167 9.966 7.001 10.733 7 10.996C7.00732 10.9974 7.01465 10.9987 7.022 11V11ZM11 5C11.5304 5 12.0391 4.78929 12.4142 4.41421C12.7893 4.03914 13 3.53043 13 3C13 2.46957 12.7893 1.96086 12.4142 1.58579C12.0391 1.21071 11.5304 1 11 1C10.4696 1 9.96086 1.21071 9.58579 1.58579C9.21071 1.96086 9 2.46957 9 3C9 3.53043 9.21071 4.03914 9.58579 4.41421C9.96086 4.78929 10.4696 5 11 5ZM14 3C14 3.39397 13.9224 3.78407 13.7716 4.14805C13.6209 4.51203 13.3999 4.84274 13.1213 5.12132C12.8427 5.3999 12.512 5.62087 12.1481 5.77164C11.7841 5.9224 11.394 6 11 6C10.606 6 10.2159 5.9224 9.85195 5.77164C9.48797 5.62087 9.15726 5.3999 8.87868 5.12132C8.6001 4.84274 8.37913 4.51203 8.22836 4.14805C8.0776 3.78407 8 3.39397 8 3C8 2.20435 8.31607 1.44129 8.87868 0.87868C9.44129 0.316071 10.2044 0 11 0C11.7956 0 12.5587 0.316071 13.1213 0.87868C13.6839 1.44129 14 2.20435 14 3V3ZM6.936 7.28C6.53598 7.15404 6.12364 7.07123 5.706 7.033C5.47133 7.01069 5.23573 6.99967 5 7C1 7 0 10 0 11C0 11.667 0.333 12 1 12H5.216C5.06776 11.6878 4.99382 11.3455 5 11C5 9.99 5.377 8.958 6.09 8.096C6.333 7.802 6.616 7.527 6.936 7.28ZM4.92 8C3.252 8.02 2.305 8.64 1.76 9.276C1.163 9.97 1 10.739 1 11H4C4 9.955 4.323 8.914 4.92 8ZM1.5 3.5C1.5 2.70435 1.81607 1.94129 2.37868 1.37868C2.94129 0.816071 3.70435 0.5 4.5 0.5C5.29565 0.5 6.05871 0.816071 6.62132 1.37868C7.18393 1.94129 7.5 2.70435 7.5 3.5C7.5 4.29565 7.18393 5.05871 6.62132 5.62132C6.05871 6.18393 5.29565 6.5 4.5 6.5C3.70435 6.5 2.94129 6.18393 2.37868 5.62132C1.81607 5.05871 1.5 4.29565 1.5 3.5V3.5ZM4.5 1.5C3.96957 1.5 3.46086 1.71071 3.08579 2.08579C2.71071 2.46086 2.5 2.96957 2.5 3.5C2.5 4.03043 2.71071 4.53914 3.08579 4.91421C3.46086 5.28929 3.96957 5.5 4.5 5.5C5.03043 5.5 5.53914 5.28929 5.91421 4.91421C6.28929 4.53914 6.5 4.03043 6.5 3.5C6.5 2.96957 6.28929 2.46086 5.91421 2.08579C5.53914 1.71071 5.03043 1.5 4.5 1.5Z" fill="black" fill-opacity="0.5"/>
</symbol></svg>